<mxfile host="drawio-plugin" modified="2023-11-30T07:43:19.595Z" agent="5.0 (Android 6.0)" etag="En1P5X-soT7N8MuA1kR9" version="20.5.3" type="embed"><diagram id="GDoW7I11KHVUBZs0m-O-" name="Page-1"><mxGraphModel dx="5320" dy="2490" grid="0" gridSize="10" guides="1" tooltips="1" connect="1" arrows="1" fold="1" page="0" pageScale="1" pageWidth="850" pageHeight="1100" math="0" shadow="0"><root><mxCell id="0"/><mxCell id="1" parent="0"/><mxCell id="node8" value="&lt;p style=&quot;margin:0px;margin-top:4px;text-align:center;&quot;&gt;&lt;b&gt;AccountStatusException&lt;/b&gt;&lt;/p&gt;&lt;hr size=&quot;1&quot;/&gt;" style="verticalAlign=top;align=left;overflow=fill;fontSize=14;fontFamily=Helvetica;html=1;rounded=0;shadow=0;comic=0;labelBackgroundColor=none;strokeWidth=1;" parent="1" vertex="1"><mxGeometry x="67" y="561" width="225" height="30" as="geometry"/></mxCell><mxCell id="bgxd-nK0Al8PeiZJTn_r-40" style="edgeStyle=none;curved=1;rounded=0;orthogonalLoop=1;jettySize=auto;html=1;exitX=0.5;exitY=1;exitDx=0;exitDy=0;entryX=0.5;entryY=0;entryDx=0;entryDy=0;fontSize=12;startSize=8;endSize=8;" parent="1" source="node17" target="node15" edge="1"><mxGeometry relative="1" as="geometry"/></mxCell><mxCell id="bgxd-nK0Al8PeiZJTn_r-43" style="edgeStyle=none;curved=1;rounded=0;orthogonalLoop=1;jettySize=auto;html=1;exitX=0.5;exitY=1;exitDx=0;exitDy=0;entryX=0.5;entryY=0;entryDx=0;entryDy=0;fontSize=12;startSize=8;endSize=8;" parent="1" source="node17" target="node15" edge="1"><mxGeometry relative="1" as="geometry"/></mxCell><mxCell id="node17" value="&lt;p style=&quot;margin:0px;margin-top:4px;text-align:center;&quot;&gt;&lt;b&gt;AddressInterface&lt;/b&gt;&lt;/p&gt;&lt;hr size=&quot;1&quot;/&gt;" style="verticalAlign=top;align=left;overflow=fill;fontSize=14;fontFamily=Helvetica;html=1;rounded=0;shadow=0;comic=0;labelBackgroundColor=none;strokeWidth=1;" parent="1" vertex="1"><mxGeometry x="200" y="2560" width="167" height="30" as="geometry"/></mxCell><mxCell id="node3" value="&lt;p style=&quot;margin:0px;margin-top:4px;text-align:center;&quot;&gt;&lt;b&gt;ApiResponseException&lt;/b&gt;&lt;/p&gt;&lt;hr size=&quot;1&quot;/&gt;&lt;p style=&quot;margin:0 0 0 4px;line-height:1.6;&quot;&gt; responseData: &lt;/p&gt;&lt;hr size=&quot;1&quot;/&gt;&lt;p style=&quot;margin:0 0 0 4px;line-height:1.6;&quot;&gt; getResponseData(): &lt;/p&gt;&lt;hr size=&quot;1&quot;/&gt;&lt;p style=&quot;margin:0 0 0 4px;line-height:1.6;&quot;&gt; __construct(message, code, responseData): &lt;/p&gt;" style="verticalAlign=top;align=left;overflow=fill;fontSize=14;fontFamily=Helvetica;html=1;rounded=0;shadow=0;comic=0;labelBackgroundColor=none;strokeWidth=1;" parent="1" vertex="1"><mxGeometry x="-853" y="516" width="302" height="126" as="geometry"/></mxCell><mxCell id="node7" value="&lt;p style=&quot;margin:0px;margin-top:4px;text-align:center;&quot;&gt;&lt;b&gt;AuthorizationException&lt;/b&gt;&lt;/p&gt;&lt;hr size=&quot;1&quot;/&gt;" style="verticalAlign=top;align=left;overflow=fill;fontSize=14;fontFamily=Helvetica;html=1;rounded=0;shadow=0;comic=0;labelBackgroundColor=none;strokeWidth=1;" parent="1" vertex="1"><mxGeometry x="-531" y="561" width="214" height="30" as="geometry"/></mxCell><mxCell id="node10" value="&lt;p style=&quot;margin:0px;margin-top:4px;text-align:center;&quot;&gt;&lt;b&gt;ConfirmLoginException&lt;/b&gt;&lt;/p&gt;&lt;hr size=&quot;1&quot;/&gt;&lt;p style=&quot;margin:0 0 0 4px;line-height:1.6;&quot;&gt; verifyCode: &lt;/p&gt;&lt;hr size=&quot;1&quot;/&gt;&lt;p style=&quot;margin:0 0 0 4px;line-height:1.6;&quot;&gt; getVerifyCode(): &lt;/p&gt;&lt;hr size=&quot;1&quot;/&gt;&lt;p style=&quot;margin:0 0 0 4px;line-height:1.6;&quot;&gt; __construct(verifyCode, message, code, previous): &lt;/p&gt;" style="verticalAlign=top;align=left;overflow=fill;fontSize=14;fontFamily=Helvetica;html=1;rounded=0;shadow=0;comic=0;labelBackgroundColor=none;strokeWidth=1;" parent="1" vertex="1"><mxGeometry x="-297" y="516" width="344" height="126" as="geometry"/></mxCell><mxCell id="node5" value="&lt;p style=&quot;margin:0px;margin-top:4px;text-align:center;&quot;&gt;&lt;b&gt;Exception&lt;/b&gt;&lt;/p&gt;&lt;hr size=&quot;1&quot;/&gt;&lt;p style=&quot;margin:0 0 0 4px;line-height:1.6;&quot;&gt; code: &lt;br/&gt; file: &lt;br/&gt; line: &lt;br/&gt; message: &lt;/p&gt;&lt;hr size=&quot;1&quot;/&gt;&lt;p style=&quot;margin:0 0 0 4px;line-height:1.6;&quot;&gt; __toString(): &lt;br/&gt; getCode(): &lt;br/&gt; getFile(): &lt;br/&gt; __wakeup(): &lt;br/&gt; getPrevious(): &lt;br/&gt; __clone(): &lt;br/&gt; getLine(): &lt;br/&gt; getMessage(): &lt;br/&gt; getTrace(): &lt;br/&gt; getTraceAsString(): &lt;/p&gt;&lt;hr size=&quot;1&quot;/&gt;&lt;p style=&quot;margin:0 0 0 4px;line-height:1.6;&quot;&gt; __construct(message, code, previous): &lt;/p&gt;" style="verticalAlign=top;align=left;overflow=fill;fontSize=14;fontFamily=Helvetica;html=1;rounded=0;shadow=0;comic=0;labelBackgroundColor=none;strokeWidth=1;" parent="1" vertex="1"><mxGeometry x="-108" width="270" height="453" as="geometry"/></mxCell><mxCell id="node15" value="&lt;p style=&quot;margin:0px;margin-top:4px;text-align:center;&quot;&gt;&lt;b&gt;FriendInterface&lt;/b&gt;&lt;/p&gt;&lt;hr size=&quot;1&quot;/&gt;&lt;p style=&quot;margin:0 0 0 4px;line-height:1.6;&quot;&gt; getRemark(): &lt;br/&gt; getLabelList(): &lt;br/&gt; getAliasName(): &lt;br/&gt; getNickName(): &lt;br/&gt; getSex(): &lt;br/&gt; getV1(): &lt;br/&gt; getUserName(): &lt;br/&gt; getSignature(): &lt;br/&gt; getBigHead(): &lt;br/&gt; getCountry(): &lt;br/&gt; getSmallHead(): &lt;/p&gt;" style="verticalAlign=top;align=left;overflow=fill;fontSize=14;fontFamily=Helvetica;html=1;rounded=0;shadow=0;comic=0;labelBackgroundColor=none;strokeWidth=1;" parent="1" vertex="1"><mxGeometry x="207" y="2630" width="153" height="339" as="geometry"/></mxCell><mxCell id="node16" value="&lt;p style=&quot;margin:0px;margin-top:4px;text-align:center;&quot;&gt;&lt;b&gt;GroupInterface&lt;/b&gt;&lt;/p&gt;&lt;hr size=&quot;1&quot;/&gt;" style="verticalAlign=top;align=left;overflow=fill;fontSize=14;fontFamily=Helvetica;html=1;rounded=0;shadow=0;comic=0;labelBackgroundColor=none;strokeWidth=1;" parent="1" vertex="1"><mxGeometry x="-164" y="2720" width="150" height="30" as="geometry"/></mxCell><mxCell id="bgxd-nK0Al8PeiZJTn_r-39" style="edgeStyle=none;curved=1;rounded=0;orthogonalLoop=1;jettySize=auto;html=1;exitX=0.5;exitY=1;exitDx=0;exitDy=0;entryX=0.5;entryY=0;entryDx=0;entryDy=0;fontSize=12;startSize=8;endSize=8;" parent="1" source="node14" target="node16" edge="1"><mxGeometry relative="1" as="geometry"/></mxCell><mxCell id="node14" value="&lt;p style=&quot;margin:0px;margin-top:4px;text-align:center;&quot;&gt;&lt;b&gt;GroupListInterface&lt;/b&gt;&lt;/p&gt;&lt;hr size=&quot;1&quot;/&gt;" style="verticalAlign=top;align=left;overflow=fill;fontSize=14;fontFamily=Helvetica;html=1;rounded=0;shadow=0;comic=0;labelBackgroundColor=none;strokeWidth=1;" parent="1" vertex="1"><mxGeometry x="-178" y="2560" width="178" height="30" as="geometry"/></mxCell><mxCell id="node27" value="&lt;p style=&quot;margin:0px;margin-top:4px;text-align:center;&quot;&gt;&lt;b&gt;ImageMessageInterface&lt;/b&gt;&lt;/p&gt;&lt;hr size=&quot;1&quot;/&gt;&lt;p style=&quot;margin:0 0 0 4px;line-height:1.6;&quot;&gt; downloadImage(): &lt;br/&gt; getImg(): &lt;/p&gt;" style="verticalAlign=top;align=left;overflow=fill;fontSize=14;fontFamily=Helvetica;html=1;rounded=0;shadow=0;comic=0;labelBackgroundColor=none;strokeWidth=1;" parent="1" vertex="1"><mxGeometry x="-2340" y="2777" width="222" height="94" as="geometry"/></mxCell><mxCell id="node22" value="&lt;p style=&quot;margin:0px;margin-top:4px;text-align:center;&quot;&gt;&lt;b&gt;ImageMessageMiddleware&lt;/b&gt;&lt;/p&gt;&lt;hr size=&quot;1&quot;/&gt;&lt;p style=&quot;margin:0 0 0 4px;line-height:1.6;&quot;&gt; handle(request, next): &lt;/p&gt;" style="verticalAlign=top;align=left;overflow=fill;fontSize=14;fontFamily=Helvetica;html=1;rounded=0;shadow=0;comic=0;labelBackgroundColor=none;strokeWidth=1;" parent="1" vertex="1"><mxGeometry x="2037" y="2296" width="243" height="64" as="geometry"/></mxCell><mxCell id="node4" value="&lt;p style=&quot;margin:0px;margin-top:4px;text-align:center;&quot;&gt;&lt;b&gt;ImageNotFoundException&lt;/b&gt;&lt;/p&gt;&lt;hr size=&quot;1&quot;/&gt;" style="verticalAlign=top;align=left;overflow=fill;fontSize=14;fontFamily=Helvetica;html=1;rounded=0;shadow=0;comic=0;labelBackgroundColor=none;strokeWidth=1;" parent="1" vertex="1"><mxGeometry x="532" y="561" width="234" height="30" as="geometry"/></mxCell><mxCell id="node6" value="&lt;p style=&quot;margin:0px;margin-top:4px;text-align:center;&quot;&gt;&lt;b&gt;LoginFailedException&lt;/b&gt;&lt;/p&gt;&lt;hr size=&quot;1&quot;/&gt;" style="verticalAlign=top;align=left;overflow=fill;fontSize=14;fontFamily=Helvetica;html=1;rounded=0;shadow=0;comic=0;labelBackgroundColor=none;strokeWidth=1;" parent="1" vertex="1"><mxGeometry x="312" y="561" width="200" height="30" as="geometry"/></mxCell><mxCell id="node11" value="&lt;p style=&quot;margin:0px;margin-top:4px;text-align:center;&quot;&gt;&lt;b&gt;LoginHandleInterface&lt;/b&gt;&lt;/p&gt;&lt;hr size=&quot;1&quot;/&gt;&lt;p style=&quot;margin:0 0 0 4px;line-height:1.6;&quot;&gt; qRCodeUrlHandle(loginResponse): &lt;/p&gt;" style="verticalAlign=top;align=left;overflow=fill;fontSize=14;fontFamily=Helvetica;html=1;rounded=0;shadow=0;comic=0;labelBackgroundColor=none;strokeWidth=1;" parent="1" vertex="1"><mxGeometry x="-496" y="1555" width="245" height="64" as="geometry"/></mxCell><mxCell id="node13" value="&lt;p style=&quot;margin:0px;margin-top:4px;text-align:center;&quot;&gt;&lt;b&gt;LoginManagerInterface&lt;/b&gt;&lt;/p&gt;&lt;hr size=&quot;1&quot;/&gt;&lt;p style=&quot;margin:0 0 0 4px;line-height:1.6;&quot;&gt; getQRCode(): &lt;br/&gt; login(): &lt;/p&gt;" style="verticalAlign=top;align=left;overflow=fill;fontSize=14;fontFamily=Helvetica;html=1;rounded=0;shadow=0;comic=0;labelBackgroundColor=none;strokeWidth=1;" parent="1" vertex="1"><mxGeometry x="-1210" y="2670" width="216" height="94" as="geometry"/></mxCell><mxCell id="node12" value="&lt;p style=&quot;margin:0px;margin-top:4px;text-align:center;&quot;&gt;&lt;b&gt;LoginResponseInterface&lt;/b&gt;&lt;/p&gt;&lt;hr size=&quot;1&quot;/&gt;&lt;p style=&quot;margin:0 0 0 4px;line-height:1.6;&quot;&gt; getQrCodeUrl(): &lt;/p&gt;" style="verticalAlign=top;align=left;overflow=fill;fontSize=14;fontFamily=Helvetica;html=1;rounded=0;shadow=0;comic=0;labelBackgroundColor=none;strokeWidth=1;" parent="1" vertex="1"><mxGeometry x="-1580" y="2710" width="224" height="64" as="geometry"/></mxCell><mxCell id="node29" value="&lt;p style=&quot;margin:0px;margin-top:4px;text-align:center;&quot;&gt;&lt;b&gt;MessageInterface&lt;/b&gt;&lt;/p&gt;&lt;hr size=&quot;1&quot;/&gt;&lt;p style=&quot;margin:0 0 0 4px;line-height:1.6;&quot;&gt; getSelf(): &lt;br/&gt; getAccount(): &lt;br/&gt; getOptions(): &lt;br/&gt; getWcId(): &lt;br/&gt; getWId(): &lt;br/&gt; getToUser(): &lt;br/&gt; getData(): &lt;br/&gt; getNewMsgId(): &lt;br/&gt; getContent(): &lt;br/&gt; getFromUser(): &lt;br/&gt; getMsgId(): &lt;br/&gt; getTimestamp(): &lt;/p&gt;" style="verticalAlign=top;align=left;overflow=fill;fontSize=14;fontFamily=Helvetica;html=1;rounded=0;shadow=0;comic=0;labelBackgroundColor=none;strokeWidth=1;" parent="1" vertex="1"><mxGeometry x="-2081" y="2360" width="175" height="367" as="geometry"/></mxCell><mxCell id="node18" value="&lt;p style=&quot;margin:0px;margin-top:4px;text-align:center;&quot;&gt;&lt;b&gt;MessageMiddleware&lt;/b&gt;&lt;/p&gt;&lt;hr size=&quot;1&quot;/&gt;&lt;p style=&quot;margin:0 0 0 4px;line-height:1.6;&quot;&gt; handle(request, next): &lt;/p&gt;" style="verticalAlign=top;align=left;overflow=fill;fontSize=14;fontFamily=Helvetica;html=1;rounded=0;shadow=0;comic=0;labelBackgroundColor=none;strokeWidth=1;" parent="1" vertex="1"><mxGeometry x="1570" y="2296" width="196" height="64" as="geometry"/></mxCell><mxCell id="bgxd-nK0Al8PeiZJTn_r-36" style="edgeStyle=none;curved=1;rounded=0;orthogonalLoop=1;jettySize=auto;html=1;exitX=1;exitY=0.25;exitDx=0;exitDy=0;entryX=0;entryY=0.75;entryDx=0;entryDy=0;fontSize=12;startSize=8;endSize=8;" parent="1" source="node19" target="node21" edge="1"><mxGeometry relative="1" as="geometry"/></mxCell><mxCell id="node19" value="&lt;p style=&quot;margin:0px;margin-top:4px;text-align:center;&quot;&gt;&lt;b&gt;Middleware&lt;/b&gt;&lt;/p&gt;&lt;hr size=&quot;1&quot;/&gt;&lt;p style=&quot;margin:0 0 0 4px;line-height:1.6;&quot;&gt; middlewares: &lt;br/&gt; data: &lt;/p&gt;&lt;hr size=&quot;1&quot;/&gt;&lt;p style=&quot;margin:0 0 0 4px;line-height:1.6;&quot;&gt; finalHandler(request): &lt;br/&gt; getMiddlewares(): &lt;br/&gt; setMiddlewares(middlewares): &lt;br/&gt; getData(): &lt;br/&gt; setMiddleware(middlewares): &lt;br/&gt; setData(data): &lt;br/&gt; handle(): &lt;/p&gt;&lt;hr size=&quot;1&quot;/&gt;&lt;p style=&quot;margin:0 0 0 4px;line-height:1.6;&quot;&gt; __construct(middlewares, data): &lt;/p&gt;" style="verticalAlign=top;align=left;overflow=fill;fontSize=14;fontFamily=Helvetica;html=1;rounded=0;shadow=0;comic=0;labelBackgroundColor=none;strokeWidth=1;" parent="1" vertex="1"><mxGeometry x="1020" y="2200" width="230" height="313" as="geometry"/></mxCell><mxCell id="node21" value="&lt;p style=&quot;margin:0px;margin-top:4px;text-align:center;&quot;&gt;&lt;b&gt;MiddlewareInterface&lt;/b&gt;&lt;/p&gt;&lt;hr size=&quot;1&quot;/&gt;&lt;p style=&quot;margin:0 0 0 4px;line-height:1.6;&quot;&gt; handle(request, next): &lt;/p&gt;" style="verticalAlign=top;align=left;overflow=fill;fontSize=14;fontFamily=Helvetica;html=1;rounded=0;shadow=0;comic=0;labelBackgroundColor=none;strokeWidth=1;" parent="1" vertex="1"><mxGeometry x="1804" y="2160" width="195" height="64" as="geometry"/></mxCell><mxCell id="node23" value="&lt;p style=&quot;margin:0px;margin-top:4px;text-align:center;&quot;&gt;&lt;b&gt;ReceiveMessageHandleInterface&lt;/b&gt;&lt;/p&gt;&lt;hr size=&quot;1&quot;/&gt;&lt;p style=&quot;margin:0 0 0 4px;line-height:1.6;&quot;&gt; dataToMessageFormat(data): &lt;br/&gt; receiveMessageHandle(receiveMessageResponse): &lt;/p&gt;" style="verticalAlign=top;align=left;overflow=fill;fontSize=14;fontFamily=Helvetica;html=1;rounded=0;shadow=0;comic=0;labelBackgroundColor=none;strokeWidth=1;" parent="1" vertex="1"><mxGeometry x="-1280" y="2360" width="352" height="94" as="geometry"/></mxCell><mxCell id="bgxd-nK0Al8PeiZJTn_r-35" style="edgeStyle=none;curved=1;rounded=0;orthogonalLoop=1;jettySize=auto;html=1;exitX=1;exitY=1;exitDx=0;exitDy=0;fontSize=12;startSize=8;endSize=8;" parent="1" source="node25" target="node19" edge="1"><mxGeometry relative="1" as="geometry"/></mxCell><mxCell id="node25" value="&lt;p style=&quot;margin:0px;margin-top:4px;text-align:center;&quot;&gt;&lt;b&gt;ReceiveMessageInterface&lt;/b&gt;&lt;/p&gt;&lt;hr size=&quot;1&quot;/&gt;" style="verticalAlign=top;align=left;overflow=fill;fontSize=14;fontFamily=Helvetica;html=1;rounded=0;shadow=0;comic=0;labelBackgroundColor=none;strokeWidth=1;" parent="1" vertex="1"><mxGeometry x="610" y="2200" width="234" height="30" as="geometry"/></mxCell><mxCell id="node24" value="&lt;p style=&quot;margin:0px;margin-top:4px;text-align:center;&quot;&gt;&lt;b&gt;ReceiveMessageResponseInterface&lt;/b&gt;&lt;/p&gt;&lt;hr size=&quot;1&quot;/&gt;&lt;p style=&quot;margin:0 0 0 4px;line-height:1.6;&quot;&gt; getMessageType(): &lt;/p&gt;" style="verticalAlign=top;align=left;overflow=fill;fontSize=14;fontFamily=Helvetica;html=1;rounded=0;shadow=0;comic=0;labelBackgroundColor=none;strokeWidth=1;" parent="1" vertex="1"><mxGeometry x="-853" y="1555" width="312" height="64" as="geometry"/></mxCell><mxCell id="node0" value="&lt;p style=&quot;margin:0px;margin-top:4px;text-align:center;&quot;&gt;&lt;b&gt;Server&lt;/b&gt;&lt;/p&gt;&lt;hr size=&quot;1&quot;/&gt;&lt;p style=&quot;margin:0 0 0 4px;line-height:1.6;&quot;&gt; server: &lt;br/&gt; wechatBot: &lt;br/&gt; port: &lt;br/&gt; host: &lt;/p&gt;&lt;hr size=&quot;1&quot;/&gt;&lt;p style=&quot;margin:0 0 0 4px;line-height:1.6;&quot;&gt; addRoute(route, callback): &lt;br/&gt; start(): &lt;br/&gt; setCallbackUrl(): &lt;br/&gt; inintialize(): &lt;/p&gt;&lt;hr size=&quot;1&quot;/&gt;&lt;p style=&quot;margin:0 0 0 4px;line-height:1.6;&quot;&gt; __construct(wechatBot, host, port): &lt;/p&gt;" style="verticalAlign=top;align=left;overflow=fill;fontSize=14;fontFamily=Helvetica;html=1;rounded=0;shadow=0;comic=0;labelBackgroundColor=none;strokeWidth=1;" parent="1" vertex="1"><mxGeometry x="770" y="678" width="251" height="285" as="geometry"/></mxCell><mxCell id="bgxd-nK0Al8PeiZJTn_r-48" style="edgeStyle=none;curved=1;rounded=0;orthogonalLoop=1;jettySize=auto;html=1;exitX=0.5;exitY=1;exitDx=0;exitDy=0;entryX=0.5;entryY=0;entryDx=0;entryDy=0;fontSize=12;startSize=8;endSize=8;" parent="1" source="node1" target="bgxd-nK0Al8PeiZJTn_r-47" edge="1"><mxGeometry relative="1" as="geometry"/></mxCell><mxCell id="node1" value="&lt;p style=&quot;margin:0px;margin-top:4px;text-align:center;&quot;&gt;&lt;b&gt;ServiceProviderInterface&lt;/b&gt;&lt;/p&gt;&lt;hr size=&quot;1&quot;/&gt;&lt;p style=&quot;margin:0 0 0 4px;line-height:1.6;&quot;&gt; getReceiveMessageHandle(): &lt;br/&gt; getFriendsManager(): &lt;br/&gt; getConfig(): &lt;br/&gt; getLoginManager(): &lt;br/&gt; getAddressManager(): &lt;br/&gt; getMomentsManager(): &lt;/p&gt;" style="verticalAlign=top;align=left;overflow=fill;fontSize=14;fontFamily=Helvetica;html=1;rounded=0;shadow=0;comic=0;labelBackgroundColor=none;strokeWidth=1;" parent="1" vertex="1"><mxGeometry x="-479" y="2200" width="228" height="199" as="geometry"/></mxCell><mxCell id="node30" value="&lt;p style=&quot;margin:0px;margin-top:4px;text-align:center;&quot;&gt;&lt;b&gt;TextMessageInterface&lt;/b&gt;&lt;/p&gt;&lt;hr size=&quot;1&quot;/&gt;" style="verticalAlign=top;align=left;overflow=fill;fontSize=14;fontFamily=Helvetica;html=1;rounded=0;shadow=0;comic=0;labelBackgroundColor=none;strokeWidth=1;" parent="1" vertex="1"><mxGeometry x="-2098" y="2807" width="208" height="30" as="geometry"/></mxCell><mxCell id="node20" value="&lt;p style=&quot;margin:0px;margin-top:4px;text-align:center;&quot;&gt;&lt;b&gt;TextMessageMiddleware&lt;/b&gt;&lt;/p&gt;&lt;hr size=&quot;1&quot;/&gt;&lt;p style=&quot;margin:0 0 0 4px;line-height:1.6;&quot;&gt; handle(request, next): &lt;/p&gt;" style="verticalAlign=top;align=left;overflow=fill;fontSize=14;fontFamily=Helvetica;html=1;rounded=0;shadow=0;comic=0;labelBackgroundColor=none;strokeWidth=1;" parent="1" vertex="1"><mxGeometry x="1786" y="2296" width="231" height="64" as="geometry"/></mxCell><mxCell id="node9" value="&lt;p style=&quot;margin:0px;margin-top:4px;text-align:center;&quot;&gt;&lt;b&gt;Throwable&lt;/b&gt;&lt;/p&gt;&lt;hr size=&quot;1&quot;/&gt;&lt;p style=&quot;margin:0 0 0 4px;line-height:1.6;&quot;&gt; __toString(): &lt;br/&gt; getCode(): &lt;br/&gt; getFile(): &lt;br/&gt; getPrevious(): &lt;br/&gt; getLine(): &lt;br/&gt; getMessage(): &lt;br/&gt; getTrace(): &lt;br/&gt; getTraceAsString(): &lt;/p&gt;" style="verticalAlign=top;align=left;overflow=fill;fontSize=14;fontFamily=Helvetica;html=1;rounded=0;shadow=0;comic=0;labelBackgroundColor=none;strokeWidth=1;" parent="1" vertex="1"><mxGeometry x="-50" y="-292" width="154" height="255" as="geometry"/></mxCell><mxCell id="bgxd-nK0Al8PeiZJTn_r-41" style="edgeStyle=none;curved=1;rounded=0;orthogonalLoop=1;jettySize=auto;html=1;exitX=0.25;exitY=1;exitDx=0;exitDy=0;entryX=0.5;entryY=0;entryDx=0;entryDy=0;fontSize=12;startSize=8;endSize=8;" parent="1" source="node26" target="node14" edge="1"><mxGeometry relative="1" as="geometry"/></mxCell><mxCell id="bgxd-nK0Al8PeiZJTn_r-42" style="edgeStyle=none;curved=1;rounded=0;orthogonalLoop=1;jettySize=auto;html=1;exitX=0.75;exitY=1;exitDx=0;exitDy=0;entryX=0.75;entryY=0;entryDx=0;entryDy=0;fontSize=12;startSize=8;endSize=8;" parent="1" source="node26" target="node17" edge="1"><mxGeometry relative="1" as="geometry"/></mxCell><mxCell id="bgxd-nK0Al8PeiZJTn_r-45" style="edgeStyle=none;curved=1;rounded=0;orthogonalLoop=1;jettySize=auto;html=1;exitX=1;exitY=0.5;exitDx=0;exitDy=0;fontSize=12;startSize=8;endSize=8;" parent="1" source="node26" edge="1"><mxGeometry relative="1" as="geometry"><mxPoint x="310" y="2341.142857142858" as="targetPoint"/></mxGeometry></mxCell><mxCell id="bgxd-nK0Al8PeiZJTn_r-46" style="edgeStyle=none;curved=1;rounded=0;orthogonalLoop=1;jettySize=auto;html=1;exitX=1;exitY=0.25;exitDx=0;exitDy=0;entryX=0;entryY=0.25;entryDx=0;entryDy=0;fontSize=12;startSize=8;endSize=8;" parent="1" source="node26" target="node25" edge="1"><mxGeometry relative="1" as="geometry"/></mxCell><mxCell id="node26" value="&lt;p style=&quot;margin:0px;margin-top:4px;text-align:center;&quot;&gt;&lt;b&gt;UserInterface&lt;/b&gt;&lt;/p&gt;&lt;hr size=&quot;1&quot;/&gt;&lt;p style=&quot;margin:0 0 0 4px;line-height:1.6;&quot;&gt; getMobilePhone(): &lt;br/&gt; getDeviceType(): &lt;br/&gt; getStatus(): &lt;br/&gt; getHeadUrl(): &lt;br/&gt; getSex(): &lt;br/&gt; getNickName(): &lt;br/&gt; getUin(): &lt;br/&gt; getWxId(): &lt;br/&gt; getWAccount(): &lt;/p&gt;" style="verticalAlign=top;align=left;overflow=fill;fontSize=14;fontFamily=Helvetica;html=1;rounded=0;shadow=0;comic=0;labelBackgroundColor=none;strokeWidth=1;" parent="1" vertex="1"><mxGeometry x="10" y="2200" width="147" height="283" as="geometry"/></mxCell><mxCell id="node28" value="&lt;p style=&quot;margin:0px;margin-top:4px;text-align:center;&quot;&gt;&lt;b&gt;VideoMessageInterface&lt;/b&gt;&lt;/p&gt;&lt;hr size=&quot;1&quot;/&gt;&lt;p style=&quot;margin:0 0 0 4px;line-height:1.6;&quot;&gt; asyncGetMsgVideo(): &lt;/p&gt;" style="verticalAlign=top;align=left;overflow=fill;fontSize=14;fontFamily=Helvetica;html=1;rounded=0;shadow=0;comic=0;labelBackgroundColor=none;strokeWidth=1;" parent="1" vertex="1"><mxGeometry x="-1870" y="2791" width="219" height="64" as="geometry"/></mxCell><mxCell id="bgxd-nK0Al8PeiZJTn_r-31" style="edgeStyle=none;curved=1;rounded=0;orthogonalLoop=1;jettySize=auto;html=1;exitX=0.5;exitY=0;exitDx=0;exitDy=0;entryX=0.5;entryY=1;entryDx=0;entryDy=0;fontSize=12;startSize=8;endSize=8;" parent="1" source="node31" target="node29" edge="1"><mxGeometry relative="1" as="geometry"/></mxCell><mxCell id="node31" value="&lt;p style=&quot;margin:0px;margin-top:4px;text-align:center;&quot;&gt;&lt;b&gt;VoiceMessagesInterface&lt;/b&gt;&lt;/p&gt;&lt;hr size=&quot;1&quot;/&gt;" style="verticalAlign=top;align=left;overflow=fill;fontSize=14;fontFamily=Helvetica;html=1;rounded=0;shadow=0;comic=0;labelBackgroundColor=none;strokeWidth=1;" parent="1" vertex="1"><mxGeometry x="-1600" y="2800" width="225" height="30" as="geometry"/></mxCell><mxCell id="bgxd-nK0Al8PeiZJTn_r-34" style="edgeStyle=none;curved=1;rounded=0;orthogonalLoop=1;jettySize=auto;html=1;exitX=1;exitY=0.75;exitDx=0;exitDy=0;entryX=0.25;entryY=0;entryDx=0;entryDy=0;fontSize=12;startSize=8;endSize=8;" parent="1" source="node2" target="node25" edge="1"><mxGeometry relative="1" as="geometry"/></mxCell><UserObject label="&lt;p style=&quot;margin:0px;margin-top:4px;text-align:center;&quot;&gt;&lt;b&gt;WechatBot&lt;/b&gt;&lt;/p&gt;&lt;hr size=&quot;1&quot;&gt;&lt;p style=&quot;margin:0 0 0 4px;line-height:1.6;&quot;&gt; serviceProvider: &lt;br&gt; loginHandle: &lt;br&gt; middleware: &lt;/p&gt;&lt;hr size=&quot;1&quot;&gt;&lt;p style=&quot;margin:0 0 0 4px;line-height:1.6;&quot;&gt; getServiceProvider(): &lt;br&gt; initialize(): &lt;br&gt; receiveMessage(): &lt;br&gt; start(): &lt;br&gt; sendMessage(message): &lt;br&gt; getIPadLoginInfo(): &lt;br&gt; getQRCode(): &lt;br&gt; receiveMessageHandle(data): &lt;/p&gt;&lt;hr size=&quot;1&quot;&gt;&lt;p style=&quot;margin:0 0 0 4px;line-height:1.6;&quot;&gt; __construct(serviceProvider, loginHandle, middleware): &lt;/p&gt;" tooltip="用于构建机器人生命周期" id="node2"><mxCell style="verticalAlign=top;align=left;overflow=fill;fontSize=14;fontFamily=Helvetica;html=1;rounded=0;shadow=0;comic=0;labelBackgroundColor=none;strokeWidth=1;labelBorderColor=none;whiteSpace=wrap;" parent="1" vertex="1"><mxGeometry x="-4" y="1760" width="371" height="369" as="geometry"/></mxCell></UserObject><mxCell id="edge2" value="" style="html=1;rounded=1;edgeStyle=orthogonalEdgeStyle;dashed=0;startArrow=none;endArrow=block;endSize=12;strokeColor=#000082;exitX=0.500;exitY=0.001;exitDx=0;exitDy=0;entryX=0.500;entryY=1.000;entryDx=0;entryDy=0;" parent="1" source="node8" target="node5" edge="1"><mxGeometry width="50" height="50" relative="1" as="geometry"><Array as="points"><mxPoint x="180" y="491"/><mxPoint x="27" y="491"/></Array></mxGeometry></mxCell><mxCell id="edge6" value="" style="html=1;rounded=1;edgeStyle=orthogonalEdgeStyle;dashed=0;startArrow=none;endArrow=block;endSize=12;strokeColor=#000082;exitX=0.500;exitY=0.000;exitDx=0;exitDy=0;entryX=0.500;entryY=1.000;entryDx=0;entryDy=0;" parent="1" source="node3" target="node5" edge="1"><mxGeometry width="50" height="50" relative="1" as="geometry"><Array as="points"><mxPoint x="-702" y="491"/><mxPoint x="27" y="491"/></Array></mxGeometry></mxCell><mxCell id="edge5" value="" style="html=1;rounded=1;edgeStyle=orthogonalEdgeStyle;dashed=0;startArrow=none;endArrow=block;endSize=12;strokeColor=#000082;exitX=0.500;exitY=0.001;exitDx=0;exitDy=0;entryX=0.500;entryY=1.000;entryDx=0;entryDy=0;" parent="1" source="node7" target="node5" edge="1"><mxGeometry width="50" height="50" relative="1" as="geometry"><Array as="points"><mxPoint x="-424" y="491"/><mxPoint x="27" y="491"/></Array></mxGeometry></mxCell><mxCell id="edge3" value="" style="html=1;rounded=1;edgeStyle=orthogonalEdgeStyle;dashed=0;startArrow=none;endArrow=block;endSize=12;strokeColor=#000082;exitX=0.500;exitY=0.000;exitDx=0;exitDy=0;entryX=0.500;entryY=1.000;entryDx=0;entryDy=0;" parent="1" source="node10" target="node5" edge="1"><mxGeometry width="50" height="50" relative="1" as="geometry"><Array as="points"><mxPoint x="-125" y="491"/><mxPoint x="27" y="491"/></Array></mxGeometry></mxCell><mxCell id="edge4" value="" style="html=1;rounded=1;edgeStyle=orthogonalEdgeStyle;dashed=1;startArrow=none;endArrow=block;endSize=12;strokeColor=#008200;exitX=0.500;exitY=0.000;exitDx=0;exitDy=0;entryX=0.500;entryY=1.000;entryDx=0;entryDy=0;" parent="1" source="node5" target="node9" edge="1"><mxGeometry width="50" height="50" relative="1" as="geometry"><Array as="points"/></mxGeometry></mxCell><mxCell id="edge11" value="" style="html=1;rounded=1;edgeStyle=orthogonalEdgeStyle;dashed=0;startArrow=none;endArrow=block;endSize=12;strokeColor=#008200;exitX=0.500;exitY=0.001;exitDx=0;exitDy=0;entryX=0.500;entryY=1.000;entryDx=0;entryDy=0;" parent="1" source="node27" target="node29" edge="1"><mxGeometry width="50" height="50" relative="1" as="geometry"><Array as="points"><mxPoint x="-2229" y="2752"/><mxPoint x="-1994" y="2752"/></Array></mxGeometry></mxCell><mxCell id="edge7" value="" style="html=1;rounded=1;edgeStyle=orthogonalEdgeStyle;dashed=1;startArrow=none;endArrow=block;endSize=12;strokeColor=#008200;exitX=0.500;exitY=0.001;exitDx=0;exitDy=0;entryX=0.500;entryY=1.001;entryDx=0;entryDy=0;" parent="1" source="node22" target="node21" edge="1"><mxGeometry width="50" height="50" relative="1" as="geometry"><Array as="points"><mxPoint x="2159" y="2271"/><mxPoint x="1902" y="2271"/></Array></mxGeometry></mxCell><mxCell id="edge0" value="" style="html=1;rounded=1;edgeStyle=orthogonalEdgeStyle;dashed=0;startArrow=none;endArrow=block;endSize=12;strokeColor=#000082;exitX=0.500;exitY=0.001;exitDx=0;exitDy=0;entryX=0.500;entryY=1.000;entryDx=0;entryDy=0;" parent="1" source="node4" target="node5" edge="1"><mxGeometry width="50" height="50" relative="1" as="geometry"><Array as="points"><mxPoint x="649" y="491"/><mxPoint x="27" y="491"/></Array></mxGeometry></mxCell><mxCell id="edge1" value="" style="html=1;rounded=1;edgeStyle=orthogonalEdgeStyle;dashed=0;startArrow=none;endArrow=block;endSize=12;strokeColor=#000082;exitX=0.500;exitY=0.001;exitDx=0;exitDy=0;entryX=0.500;entryY=1.000;entryDx=0;entryDy=0;" parent="1" source="node6" target="node5" edge="1"><mxGeometry width="50" height="50" relative="1" as="geometry"><Array as="points"><mxPoint x="412" y="491"/><mxPoint x="27" y="491"/></Array></mxGeometry></mxCell><mxCell id="edge9" value="" style="html=1;rounded=1;edgeStyle=orthogonalEdgeStyle;dashed=1;startArrow=none;endArrow=block;endSize=12;strokeColor=#008200;exitX=0.500;exitY=0.001;exitDx=0;exitDy=0;entryX=0.500;entryY=1.001;entryDx=0;entryDy=0;" parent="1" source="node18" target="node21" edge="1"><mxGeometry width="50" height="50" relative="1" as="geometry"><Array as="points"><mxPoint x="1668" y="2271"/><mxPoint x="1902" y="2271"/></Array></mxGeometry></mxCell><mxCell id="edge12" value="" style="html=1;rounded=1;edgeStyle=orthogonalEdgeStyle;dashed=0;startArrow=none;endArrow=block;endSize=12;strokeColor=#008200;exitX=0.500;exitY=0.001;exitDx=0;exitDy=0;entryX=0.500;entryY=1.000;entryDx=0;entryDy=0;" parent="1" source="node30" target="node29" edge="1"><mxGeometry width="50" height="50" relative="1" as="geometry"><Array as="points"/></mxGeometry></mxCell><mxCell id="edge8" value="" style="html=1;rounded=1;edgeStyle=orthogonalEdgeStyle;dashed=1;startArrow=none;endArrow=block;endSize=12;strokeColor=#008200;exitX=0.500;exitY=0.001;exitDx=0;exitDy=0;entryX=0.500;entryY=1.001;entryDx=0;entryDy=0;" parent="1" source="node20" target="node21" edge="1"><mxGeometry width="50" height="50" relative="1" as="geometry"><Array as="points"/></mxGeometry></mxCell><mxCell id="edge10" value="" style="html=1;rounded=1;edgeStyle=orthogonalEdgeStyle;dashed=0;startArrow=none;endArrow=block;endSize=12;strokeColor=#008200;exitX=0.500;exitY=0.001;exitDx=0;exitDy=0;entryX=0.500;entryY=1.000;entryDx=0;entryDy=0;" parent="1" source="node28" target="node29" edge="1"><mxGeometry width="50" height="50" relative="1" as="geometry"><Array as="points"><mxPoint x="-1760" y="2752"/><mxPoint x="-1994" y="2752"/></Array></mxGeometry></mxCell><mxCell id="bgxd-nK0Al8PeiZJTn_r-1" value="" style="endArrow=classic;html=1;rounded=0;fontSize=12;startSize=8;endSize=8;curved=1;exitX=-0.001;exitY=0.13;exitDx=0;exitDy=0;exitPerimeter=0;entryX=0.557;entryY=-0.007;entryDx=0;entryDy=0;entryPerimeter=0;" parent="1" source="node2" target="node1" edge="1"><mxGeometry width="50" height="50" relative="1" as="geometry"><mxPoint x="-320" y="2140" as="sourcePoint"/><mxPoint x="-270" y="2090" as="targetPoint"/></mxGeometry></mxCell><mxCell id="bgxd-nK0Al8PeiZJTn_r-2" value="" style="endArrow=classic;html=1;rounded=0;fontSize=12;startSize=8;endSize=8;curved=1;exitX=-0.022;exitY=0.566;exitDx=0;exitDy=0;exitPerimeter=0;entryX=0.75;entryY=0;entryDx=0;entryDy=0;" parent="1" source="node1" target="node13" edge="1"><mxGeometry width="50" height="50" relative="1" as="geometry"><mxPoint x="-660" y="2320" as="sourcePoint"/><mxPoint x="-610" y="2270" as="targetPoint"/></mxGeometry></mxCell><mxCell id="bgxd-nK0Al8PeiZJTn_r-3" value="" style="endArrow=classic;html=1;rounded=0;fontSize=12;startSize=8;endSize=8;curved=1;exitX=0.334;exitY=1.003;exitDx=0;exitDy=0;exitPerimeter=0;entryX=0.75;entryY=0;entryDx=0;entryDy=0;" parent="1" source="node2" target="node26" edge="1"><mxGeometry width="50" height="50" relative="1" as="geometry"><mxPoint x="60" y="2280" as="sourcePoint"/><mxPoint x="110" y="2230" as="targetPoint"/></mxGeometry></mxCell><mxCell id="bgxd-nK0Al8PeiZJTn_r-11" style="edgeStyle=none;curved=1;rounded=0;orthogonalLoop=1;jettySize=auto;html=1;exitX=0;exitY=0.5;exitDx=0;exitDy=0;entryX=1;entryY=0.5;entryDx=0;entryDy=0;fontSize=12;startSize=8;endSize=8;" parent="1" source="bgxd-nK0Al8PeiZJTn_r-4" target="bgxd-nK0Al8PeiZJTn_r-9" edge="1"><mxGeometry relative="1" as="geometry"/></mxCell><mxCell id="bgxd-nK0Al8PeiZJTn_r-4" value="&lt;p style=&quot;margin:0px;margin-top:4px;text-align:center;&quot;&gt;&lt;b&gt;UserManagerInterface&lt;/b&gt;&lt;/p&gt;&lt;hr size=&quot;1&quot;&gt;&lt;p style=&quot;margin:0 0 0 4px;line-height:1.6;&quot;&gt; getUserInfo(): &lt;br&gt; login(): &lt;/p&gt;" style="verticalAlign=top;align=left;overflow=fill;fontSize=14;fontFamily=Helvetica;html=1;rounded=0;shadow=0;comic=0;labelBackgroundColor=none;strokeWidth=1;" parent="1" vertex="1"><mxGeometry x="-700" y="2680" width="216" height="94" as="geometry"/></mxCell><mxCell id="bgxd-nK0Al8PeiZJTn_r-5" value="" style="endArrow=classic;html=1;rounded=0;fontSize=12;startSize=8;endSize=8;curved=1;entryX=1;entryY=0.5;entryDx=0;entryDy=0;" parent="1" target="node12" edge="1"><mxGeometry width="50" height="50" relative="1" as="geometry"><mxPoint x="-1200" y="2740" as="sourcePoint"/><mxPoint x="-1010" y="2400" as="targetPoint"/></mxGeometry></mxCell><mxCell id="bgxd-nK0Al8PeiZJTn_r-6" value="" style="endArrow=classic;html=1;rounded=0;fontSize=12;startSize=8;endSize=8;curved=1;entryX=0.5;entryY=0;entryDx=0;entryDy=0;" parent="1" source="node1" target="bgxd-nK0Al8PeiZJTn_r-4" edge="1"><mxGeometry width="50" height="50" relative="1" as="geometry"><mxPoint x="-1060" y="2280" as="sourcePoint"/><mxPoint x="-1010" y="2230" as="targetPoint"/></mxGeometry></mxCell><mxCell id="bgxd-nK0Al8PeiZJTn_r-9" value="&lt;p style=&quot;margin:0px;margin-top:4px;text-align:center;&quot;&gt;&lt;b&gt;UserResponseInterface&lt;/b&gt;&lt;/p&gt;&lt;hr size=&quot;1&quot;&gt;&lt;p style=&quot;margin:0 0 0 4px;line-height:1.6;&quot;&gt; getQrCodeUrl(): &lt;/p&gt;" style="verticalAlign=top;align=left;overflow=fill;fontSize=14;fontFamily=Helvetica;html=1;rounded=0;shadow=0;comic=0;labelBackgroundColor=none;strokeWidth=1;" parent="1" vertex="1"><mxGeometry x="-980" y="2695" width="224" height="64" as="geometry"/></mxCell><mxCell id="bgxd-nK0Al8PeiZJTn_r-12" value="" style="endArrow=classic;html=1;rounded=0;fontSize=12;startSize=8;endSize=8;curved=1;exitX=0.003;exitY=0.337;exitDx=0;exitDy=0;exitPerimeter=0;entryX=1;entryY=0.25;entryDx=0;entryDy=0;" parent="1" source="node1" target="node23" edge="1"><mxGeometry width="50" height="50" relative="1" as="geometry"><mxPoint x="-500" y="2280" as="sourcePoint"/><mxPoint x="-450" y="2230" as="targetPoint"/></mxGeometry></mxCell><mxCell id="bgxd-nK0Al8PeiZJTn_r-37" value="" style="shape=flexArrow;endArrow=classic;startArrow=classic;html=1;rounded=0;fontSize=12;startSize=8;endSize=13.48;curved=1;width=6;entryX=0;entryY=0.75;entryDx=0;entryDy=0;exitX=1;exitY=0.5;exitDx=0;exitDy=0;" parent="1" source="node23" target="node25" edge="1"><mxGeometry width="100" height="100" relative="1" as="geometry"><mxPoint x="350" y="2340" as="sourcePoint"/><mxPoint x="450" y="2240" as="targetPoint"/></mxGeometry></mxCell><mxCell id="bgxd-nK0Al8PeiZJTn_r-38" value="" style="shape=flexArrow;endArrow=classic;startArrow=classic;html=1;rounded=0;fontSize=12;startSize=8;endSize=8;curved=1;entryX=0;entryY=0.75;entryDx=0;entryDy=0;exitX=1.034;exitY=0.436;exitDx=0;exitDy=0;exitPerimeter=0;" parent="1" source="node29" target="node23" edge="1"><mxGeometry width="100" height="100" relative="1" as="geometry"><mxPoint x="-1710" y="2510" as="sourcePoint"/><mxPoint x="-1610" y="2410" as="targetPoint"/></mxGeometry></mxCell><mxCell id="bgxd-nK0Al8PeiZJTn_r-50" style="edgeStyle=none;curved=1;rounded=0;orthogonalLoop=1;jettySize=auto;html=1;exitX=0.5;exitY=1;exitDx=0;exitDy=0;entryX=1;entryY=0.5;entryDx=0;entryDy=0;fontSize=12;startSize=8;endSize=8;" parent="1" source="bgxd-nK0Al8PeiZJTn_r-44" target="bgxd-nK0Al8PeiZJTn_r-47" edge="1"><mxGeometry relative="1" as="geometry"/></mxCell><mxCell id="bgxd-nK0Al8PeiZJTn_r-44" value="&lt;p style=&quot;margin:0px;margin-top:4px;text-align:center;&quot;&gt;&lt;b&gt;SendMessageInterface&lt;/b&gt;&lt;/p&gt;&lt;p style=&quot;margin:0 0 0 4px;line-height:1.6;&quot;&gt;&lt;br&gt;send(): &lt;/p&gt;" style="verticalAlign=top;align=left;overflow=fill;fontSize=14;fontFamily=Helvetica;html=1;rounded=0;shadow=0;comic=0;labelBackgroundColor=none;strokeWidth=1;" parent="1" vertex="1"><mxGeometry x="312" y="2281" width="216" height="94" as="geometry"/></mxCell><mxCell id="bgxd-nK0Al8PeiZJTn_r-47" value="&lt;p style=&quot;margin:0px;margin-top:4px;text-align:center;&quot;&gt;&lt;b&gt;SendInterface&lt;/b&gt;&lt;/p&gt;&lt;p style=&quot;margin:0 0 0 4px;line-height:1.6;&quot;&gt;&lt;br&gt;send(): &lt;/p&gt;" style="verticalAlign=top;align=left;overflow=fill;fontSize=14;fontFamily=Helvetica;html=1;rounded=0;shadow=0;comic=0;labelBackgroundColor=none;strokeWidth=1;" parent="1" vertex="1"><mxGeometry x="-440" y="2683" width="216" height="94" as="geometry"/></mxCell><mxCell id="bgxd-nK0Al8PeiZJTn_r-51" value="&lt;div style=&quot;text-align: center;&quot;&gt;&lt;b&gt;downloadFile&lt;/b&gt;&lt;b style=&quot;background-color: initial;&quot;&gt;Interface&lt;/b&gt;&lt;/div&gt;&lt;p style=&quot;margin:0 0 0 4px;line-height:1.6;&quot;&gt;&lt;br&gt;download(): &lt;/p&gt;" style="verticalAlign=top;align=left;overflow=fill;fontSize=14;fontFamily=Helvetica;html=1;rounded=0;shadow=0;comic=0;labelBackgroundColor=none;strokeWidth=1;" parent="1" vertex="1"><mxGeometry x="-1230" y="2875" width="216" height="94" as="geometry"/></mxCell><mxCell id="bgxd-nK0Al8PeiZJTn_r-52" style="edgeStyle=none;curved=1;rounded=0;orthogonalLoop=1;jettySize=auto;html=1;exitX=0;exitY=1;exitDx=0;exitDy=0;entryX=0.926;entryY=-0.053;entryDx=0;entryDy=0;entryPerimeter=0;fontSize=12;startSize=8;endSize=8;" parent="1" source="node1" target="bgxd-nK0Al8PeiZJTn_r-51" edge="1"><mxGeometry relative="1" as="geometry"/></mxCell></root></mxGraphModel></diagram></mxfile>